
# mkv videolarını hem ingilizce hem türkçe seslendirmeyi koruyarak sıkıştır 20191118 

Ref: `~/projects/study/code/video/ex/process_shadowing_pronunciation_video_clips/make_shadowing_video_clips.sh`

## Final

``` bash
VOLUME_INCREASE=2
clip_name="Incredibles 2 - İnanılmaz Aile 2 - 2018 - 1080p - Dual - Altyazısız"
bash ~/projects/study/code/video/ex/process_shadowing_pronunciation_video_clips/make_shadowing_video_clips.sh -c "${clip_name}" -v $VOLUME_INCREASE -S
``` 

## Logs

Mevcut kod:

``` bash
	stream_line=$(ffprobe -i "${input}" 2>&1 | rg eng | rg Stream | rg Audio)
	pat='Stream #0:([0-9])'
	[[ $stream_line =~ $pat ]]
	stream="${BASH_REMATCH[1]}"
``` 

Burada `eng` için stream numarasını buluyoruz. Aynısını tur için de yapmalıyız.

``` bash
clip_name="Incredibles 2 - İnanılmaz Aile 2 - 2018 - 1080p - Dual - Altyazısız"
input="${clip_name}.mkv"
output_mp4="${clip_name}.mp4"
offset_clip_id=0
``` 

``` bash
ffprobe -i "${input}" 2>&1 | rg Audio | rg tur
  ##>     Stream #0:1(tur): Audio: ac3, 48000 Hz, 5.1(side), fltp, 384 kb/s
``` 

``` bash
	stream_line=$(ffprobe -i "${input}" 2>&1 | rg tur | rg Stream | rg Audio)
	pat='Stream #0:([0-9])'
	[[ $stream_line =~ $pat ]]
	stream="${BASH_REMATCH[1]}"
``` 

Önceki kod: `/Users/mertnuhoglu/projects/myrepo/logbook/stream_numarasini_otomatik_parse_edelim_20191026.md`

Check `~/projects/myrepo/logbook/ex/stream_numarasini_otomatik_parse_edelim_20191026/ex01/e05tur.sh`

``` bash
cd "/Volumes/Elements/arsivden/cocuk/Incredibles 2 - İnanılmaz Aile 2 - 2018 - 1080p - Dual - Altyazısız/"
clip_name="Incredibles 2 - İnanılmaz Aile 2 - 2018 - 1080p - Dual - Altyazısız"
bash ~/projects/myrepo/logbook/ex/stream_numarasini_otomatik_parse_edelim_20191026/ex01/e05tur.sh $clip_name
  ##> Stream #0:1(tur): Audio: ac3, 48000 Hz, 5.1(side), fltp, 384 kb/s
  ##> Stream #0:1
  ##> 1
``` 

Test it 

``` bash
VOLUME_INCREASE=2
clip_name="Incredibles 2 - İnanılmaz Aile 2 - 2018 - 1080p - Dual - Altyazısız"
bash ~/projects/study/code/video/ex/process_shadowing_pronunciation_video_clips/make_shadowing_video_clips.sh -c "${clip_name}" -v $VOLUME_INCREASE -S
``` 

### Error: `sub` videoda türkçe ses eksik.

``` bash
ffprobe -i "Incredibles 2 - İnanılmaz Aile 2 - 2018 - 1080p - Dual - Altyazısız.mkv" 2>&1 | rg Stream
  ##>     Stream #0:0(eng): Video: h264 (High), yuv420p(progressive), 1920x808, SAR 1:1 DAR 240:101, 23.98 fps, 23.98 tbr, 1k tbn, 47.95 tbc (default)
  ##>     Stream #0:1(tur): Audio: ac3, 48000 Hz, 5.1(side), fltp, 384 kb/s
  ##>     Stream #0:2(eng): Audio: dts (DTS), 48000 Hz, 5.1(side), fltp, 1536 kb/s (default)
  ##>     Stream #0:3(tur): Subtitle: subrip (default)


ffprobe -i "Incredibles 2 - İnanılmaz Aile 2 - 2018 - 1080p - Dual - Altyazısız_320.mkv" 2>&1 | rg Stream
  ##>     Stream #0:0(eng): Video: h264 (High), yuv420p(progressive), 320x240 [SAR 180:101 DAR 240:101], 23.98 fps, 23.98 tbr, 1k tbn, 47.95 tbc (default)
  ##>     Stream #0:1(eng): Audio: aac (LC), 48000 Hz, 6 channels, fltp (default)
  ##>     Stream #0:2(tur): Audio: aac (LC), 48000 Hz, 6 channels, fltp
  ##>     Stream #0:3(tur): Audio: aac (LC), 48000 Hz, 6 channels, fltp

ffprobe -i "Incredibles 2 - İnanılmaz Aile 2 - 2018 - 1080p - Dual - Altyazısız_sub.mkv" 2>&1 | rg Stream
  ##>     Stream #0:0(eng): Video: h264 (High), yuv420p(progressive), 320x240 [SAR 180:101 DAR 240:101], 23.98 fps, 23.98 tbr, 1k tbn, 47.95 tbc (default)
``` 

#### opt01: map ne anlama geliyor?

Ref: `/Users/mertnuhoglu/projects/study/logbook/ffmpeg_articles_20190720.md`

``` bash
ffmpeg -i "${output_mp4}" \
	-map 0:0 -map 0:1 -map 0:2 \
	-c:v libx264 -crf 12 -vf "ass=${clip_name}.ass" "${output_sub}" 
``` 

# clojure için anki dosyası oluştur 20191118 

Vim komutları nelerdi?

``` bash
:ConvertAnkiMd
:UnconvertAnkiMd
:AnkiIncrementC1
üe "select word and make cloze
``` 

